<?xml version="1.0" ?><!DOCTYPE svg  PUBLIC '-//W3C//DTD SVG 1.1//EN'  'http://www.w3.org/Graphics/SVG/1.1/DTD/svg11.dtd'><svg xmlns="http://www.w3.org/2000/svg" xmlns:xlink="http://www.w3.org/1999/xlink" version="1.1" id="Layer_2" width="841.9px" height="595.301px" viewBox="0 0 841.9 595.301" enable-background="new 0 0 841.9 595.301" xml:space="preserve"><path fill="none" stroke="#000000" stroke-width="4" stroke-linecap="round" stroke-linejoin="round" stroke-miterlimit="10" d="  M289.7,181c-30.6-5.2-89.7-13.3-98.5-14.2c-8.8-0.899-8.5,0.7-9.2,3.601c-0.8,2.899-20.3,50.2-23.6,57.8s-2,9.3,7.4,10.6  c9.399,1.301,153,28.9,166.2,31.601c13.1,2.7,14.8,4.3,16.1-0.4c1.4-4.6,24.2-71.2,24.2-71.2C373.201,197,320.301,186.2,289.7,181z"/><path fill="none" stroke="#000000" stroke-width="4" stroke-linecap="round" stroke-linejoin="round" stroke-miterlimit="10" d="  M160.9,238.8c1,4.9,47,28.4,88.2,34c41.2,5.7,95.2,0.301,95.2,0.301"/><path fill="none" stroke="#000000" stroke-width="4" stroke-linecap="round" stroke-linejoin="round" stroke-miterlimit="10" d="  M249.1,272.9"/><path fill="none" stroke="#000000" stroke-width="3" stroke-linecap="round" stroke-linejoin="round" stroke-miterlimit="10" d="  M294.501,183.2c-4.3,2.3-3.601,12.2-3.601,12.2s5.5,0.1,15.801,3.2c10.3,3.199,17.1,13.1,17.1,13.1"/><path fill="none" stroke="#000000" stroke-width="3" stroke-linecap="round" stroke-linejoin="round" stroke-miterlimit="10" d="  M320.6,223.6c0,0,3.101,3.8,4.8,4.699c1.7,0.9,10.5,0.5,11.601-5.399c1-5.9-3.101-11-5.5-11.601c-2.4-0.6-8.9,1.601-8.9,1.601"/><path fill="none" stroke="#000000" stroke-width="3" stroke-linecap="round" stroke-linejoin="round" stroke-miterlimit="10" d="  M329.1,211.1c0,0,2.101-3.4,4-7.601c1.9-4.2-0.6-8.7-3.6-14.6"/><path fill="none" stroke="#000000" stroke-width="3" stroke-linecap="round" stroke-linejoin="round" stroke-miterlimit="10" d="  M322.201,226.7c0,0-0.801,5.4-4.7,12.4c-3.8,7-14.5,8.899-21.3,7.5c-6.801-1.4-10.7-7.601-10.7-7.601s-0.7-17.8,0.399-26.3  c1.101-8.5,5.5-16.9,5.5-16.9"/><path fill="none" stroke="#000000" stroke-width="3" stroke-linecap="round" stroke-linejoin="round" stroke-miterlimit="10" d="  M322.6,227.8c0,0,5,7.2,6.3,9c1.4,1.801,4.5,3.7,9.801,3.9c5.3,0.2,8.199-0.8,8.899-4.8c0.7-4.101-8.5-9.7-10.399-13.101"/><path fill="none" stroke="#000000" stroke-width="3" stroke-linecap="round" stroke-linejoin="round" stroke-miterlimit="10" d="  M337.201,222.8"/><path fill="none" stroke="#000000" stroke-width="2.5" stroke-linecap="round" stroke-linejoin="round" stroke-miterlimit="10" d="  M297.201,194.5c0,0-0.101-3.5,1.5-6.899c1.6-3.4,11.5,1.5,14.5,3.8c2.899,2.3,1.899,6.2,0.699,9.1"/><path fill="none" stroke="#000000" stroke-width="2.5" stroke-linecap="round" stroke-linejoin="round" stroke-miterlimit="10" d="  M298.4,191.8c0,0,5.2-0.399,9.2,1.2c4,1.601,6.9,3.3,6.9,3.3"/><path fill="none" stroke="#000000" stroke-width="2.5" stroke-linecap="round" stroke-linejoin="round" stroke-miterlimit="10" d="  M322.501,220.2c0,0,3.899-2.1,6-2.1c2.3,0,3.899,1.3,3.899,1.3"/><path fill="none" stroke="#000000" stroke-width="2.5" stroke-linecap="round" stroke-linejoin="round" stroke-miterlimit="10" d="  M328.6,218.1"/><path fill="none" stroke="#000000" stroke-width="2" stroke-linecap="round" stroke-linejoin="round" stroke-miterlimit="10" d="  M319.6,217.7c1.601-2.2,1.9-7.4,1.9-7.4"/><path fill="none" stroke="#000000" stroke-width="2" stroke-linecap="round" stroke-linejoin="round" stroke-miterlimit="10" d="  M317.9,217.3c-0.1-0.5,2-9.3,2-9.3"/><path fill="none" stroke="#000000" stroke-width="2" stroke-linecap="round" stroke-linejoin="round" stroke-miterlimit="10" d="  M316.6,214.1c0.101-1.301,1.2-8.2,1.2-8.2"/><path fill="none" stroke="#000000" stroke-width="2" stroke-linecap="round" stroke-linejoin="round" stroke-miterlimit="10" d="  M314.501,209.3l1.2-4.899"/><path fill="none" stroke="#000000" stroke-width="2" stroke-linecap="round" stroke-linejoin="round" stroke-miterlimit="10" d="  M312.6,207.1l1.101-4.101"/><path fill="none" stroke="#000000" stroke-width="2" stroke-linecap="round" stroke-linejoin="round" stroke-miterlimit="10" d="  M309.9,205.8l0.9-4.199"/><path fill="none" stroke="#000000" stroke-width="2" stroke-linecap="round" stroke-linejoin="round" stroke-miterlimit="10" d="  M307.001,203.1l0.7-2.7"/><path fill="none" stroke="#000000" stroke-width="2" stroke-linecap="round" stroke-linejoin="round" stroke-miterlimit="10" d="  M307.001,203.1"/><path fill="none" stroke="#000000" stroke-width="2.4" stroke-linecap="round" stroke-linejoin="round" stroke-miterlimit="10" d="  M311.201,211.4c0.399,3.7-4.9,7.6-9.4,8c-4.5,0.5-9.1-2.5-10.3-7.4c-1.2-5,1.899-11,7.5-11.5c5.6-0.5,8.2,5.3,8.2,5.3"/><path fill="none" stroke="#000000" stroke-width="2.4" stroke-linecap="round" stroke-linejoin="round" stroke-miterlimit="10" d="  M311.201,211.4"/><path fill="none" stroke="#000000" stroke-width="2" stroke-linecap="round" stroke-linejoin="round" stroke-miterlimit="10" d="  M304.6,201.7l0.4-2.4"/><path fill="none" stroke="#000000" stroke-width="2" stroke-linecap="round" stroke-linejoin="round" stroke-miterlimit="10" d="  M302.001,200.1l0.3-1.801"/><path fill="none" stroke="#000000" stroke-width="2" stroke-linecap="round" stroke-linejoin="round" stroke-miterlimit="10" d="  M299.501,199.7l0.2-2.1"/><path fill="none" stroke="#000000" stroke-width="2" stroke-linecap="round" stroke-linejoin="round" stroke-miterlimit="10" d="  M296.801,200l0.2-3"/><path fill="none" stroke="#000000" stroke-width="2" stroke-linecap="round" stroke-linejoin="round" stroke-miterlimit="10" d="  M293.001,202c-0.4-0.3,1.5-5.6,1.5-5.6"/><path fill="none" stroke="#000000" stroke-width="2" stroke-linecap="round" stroke-linejoin="round" stroke-miterlimit="10" d="  M290.9,205.1c-1.1-4.4,1.9-9.101,1.9-9.101"/><path fill="none" stroke="#000000" stroke-width="2" stroke-linecap="round" stroke-linejoin="round" stroke-miterlimit="10" d="  M285.4,199.5l4.801-4.7"/><path fill="none" stroke="#000000" stroke-width="2" stroke-linecap="round" stroke-linejoin="round" stroke-miterlimit="10" d="  M285.4,199.5"/><path fill="none" stroke="#000000" stroke-width="3" stroke-linecap="round" stroke-linejoin="round" stroke-miterlimit="10" d="  M284.801,219.4c-4-0.9-7.7-2.9-8.7-5.601c-1-2.699-2.3-9.699,1-12.6s9.101-1.5,10.7-0.3"/><path fill="none" stroke="#000000" stroke-width="3" stroke-linecap="round" stroke-linejoin="round" stroke-miterlimit="10" d="  M287.801,200.9"/><path fill="none" stroke="#000000" stroke-width="2.5" stroke-linecap="round" stroke-linejoin="round" stroke-miterlimit="10" d="  M281.6,205.8c1.601,0.801,3.7,4.5,3.7,4.9"/><path fill="none" stroke="#000000" stroke-width="2.5" stroke-linecap="round" stroke-linejoin="round" stroke-miterlimit="10" d="  M281.701,211.9c0.399-1.8,2.3-3,2.3-3"/><path fill="none" stroke="#000000" stroke-width="2.5" stroke-linecap="round" stroke-linejoin="round" stroke-miterlimit="10" d="  M290.4,227.4c0,0,3.9-0.7,7.801,0.399c3.899,1,8.1,5.2,8.1,5.2"/><path fill="none" stroke="#000000" stroke-width="2.5" stroke-linecap="round" stroke-linejoin="round" stroke-miterlimit="10" d="  M298.201,227.8"/><path fill="none" stroke="#000000" stroke-width="2" stroke-linecap="round" stroke-linejoin="round" stroke-miterlimit="10" d="  M308.4,223.8c0-0.199,0-0.3-0.199-0.3"/><path fill="none" stroke="#000000" stroke-width="2" stroke-linecap="round" stroke-linejoin="round" stroke-miterlimit="10" d="  M307.9,227.6c0.101,0,0.101,0,0.2,0"/><path fill="none" stroke="#000000" stroke-width="2" stroke-linecap="round" stroke-linejoin="round" stroke-miterlimit="10" d="  M313.001,229.4c0.1,0.1,0.2,0.2,0.3,0.2c0-0.101,0-0.2,0-0.301"/><path fill="none" stroke="#000000" stroke-width="2" stroke-linecap="round" stroke-linejoin="round" stroke-miterlimit="10" d="  M311.001,237.3L311.001,237.3"/><path fill="none" stroke="#000000" stroke-width="2" stroke-linecap="round" stroke-linejoin="round" stroke-miterlimit="10" d="  M290.001,221.1c0.1-0.101,0.2-0.2,0.3-0.2"/><path fill="none" stroke="#000000" stroke-width="2" stroke-linecap="round" stroke-linejoin="round" stroke-miterlimit="10" d="  M291.1,236.1c0-0.101,0-0.2,0-0.301"/><path fill="none" stroke="#000000" stroke-width="2" stroke-linecap="round" stroke-linejoin="round" stroke-miterlimit="10" d="  M293.301,239.2c0,0,0.2-0.2,0.3-0.3"/><path fill="none" stroke="#000000" stroke-width="2" stroke-linecap="round" stroke-linejoin="round" stroke-miterlimit="10" d="  M293.6,238.9"/><path fill="none" stroke="#000000" stroke-width="3" stroke-linecap="round" stroke-linejoin="round" stroke-miterlimit="10" d="  M320.201,263.5c1.699-5.8-7.4-15.899-7.4-15.899s5.6,2.899,9.5,5.899c3.1-5.8,12.1-5.7,15.5-3.399c-1.3-5.301-18.6-11.4-18.6-11.4"/><path fill="none" stroke="#000000" stroke-width="3" stroke-linecap="round" stroke-linejoin="round" stroke-miterlimit="10" d="  M304.701,264.4c0,0,4.6,0.7,8.699,0.399c4.101-0.199,8.9,0.601,10.5-3.6c1.5-4.1-1.6-7.4-1.6-7.4"/><path fill="none" stroke="#000000" stroke-width="3" stroke-linecap="round" stroke-linejoin="round" stroke-miterlimit="10" d="  M333.801,270c0,0,5.8-0.1,7.7-5.8c1.899-5.8-3.7-14.1-3.7-14.1"/><path fill="none" stroke="#000000" stroke-width="3" stroke-linecap="round" stroke-linejoin="round" stroke-miterlimit="10" d="  M289.1,261.2c0.2-3.5,4.9-6.6,9.601-5.1c4.6,1.5,4.699,7.899,4.699,7.899"/><path fill="none" stroke="#000000" stroke-width="3" stroke-linecap="round" stroke-linejoin="round" stroke-miterlimit="10" d="  M283.201,259.3c0.699-6.899,2.899-8.8,8.5-8.5c5.6,0.301,5.8,4.2,5.8,4.2"/><path fill="none" stroke="#000000" stroke-width="3" stroke-linecap="round" stroke-linejoin="round" stroke-miterlimit="10" d="  M277.701,258.6c0,0-0.2-2.301,1.8-5.4s5.2-3.7,7.3-2.5"/><path fill="none" stroke="#000000" stroke-width="3" stroke-linecap="round" stroke-linejoin="round" stroke-miterlimit="10" d="  M269.9,258.1c-0.1-4.9,2.301-10.4,5.5-10.101c3.2,0.3,5.301,3,5.301,3"/><path fill="none" stroke="#000000" stroke-width="3" stroke-linecap="round" stroke-linejoin="round" stroke-miterlimit="10" d="  M262.701,255.9c0,0,0-4,1.5-7s6-2,7.8-0.5"/><path fill="none" stroke="#000000" stroke-width="3" stroke-linecap="round" stroke-linejoin="round" stroke-miterlimit="10" d="  M257.701,254.6c0,0-0.301-2.4,0.3-4.7c0.6-2.3,3.8-3.3,5.899-2.2"/><path fill="none" stroke="#000000" stroke-width="3" stroke-linecap="round" stroke-linejoin="round" stroke-miterlimit="10" d="  M256.9,253.7c-3.399-6.4,1.101-15.4,6-19.1c4.9-3.601,21-4.301,21-4.301"/><path fill="none" stroke="#000000" stroke-width="3" stroke-linecap="round" stroke-linejoin="round" stroke-miterlimit="10" d="  M272.201,242.4c0.1-5.9-8.2-7.7-8.2-7.7"/><path fill="none" stroke="#000000" stroke-width="3" stroke-linecap="round" stroke-linejoin="round" stroke-miterlimit="10" d="  M271.7,247.8c0,0-0.699-2.1-0.3-4.199c0.5-2.2,4.9-3,5.2-3s3,9.199,3,9.199"/><path fill="none" stroke="#000000" stroke-width="3" stroke-linecap="round" stroke-linejoin="round" stroke-miterlimit="10" d="  M328.1,242.3c0,0,16.601,3.2,18.601,4.301c2,1,4.5,10.6,4.5,10.6"/><path fill="none" stroke="#000000" stroke-width="3" stroke-linecap="round" stroke-linejoin="round" stroke-miterlimit="10" d="  M346.701,246.6"/><path fill="none" stroke="#000000" stroke-width="4" stroke-linecap="round" stroke-linejoin="round" stroke-miterlimit="10" d="  M189.301,242.1c0,0,3.6-10.301,4.5-15.9c0.899-5.6,4.199-9.1,10.6-7.8c6.5,1.3,32.9,6,39.9,8.2c7,2.199,8.5,6.899,8.3,10.699  c-0.1,3.801-4.3,15.7-4.3,15.7"/><path fill="none" stroke="#000000" stroke-width="4" stroke-linecap="round" stroke-linejoin="round" stroke-miterlimit="10" d="  M229.7,289.7c-1.5,13,1.601,20.6,8.801,22.2c7.1,1.6,11.399-1.101,15.899-14.8c4.4-13.7-4.5-23.4-9.899-24  C236.6,272.2,231.1,276.7,229.7,289.7z"/><path fill="none" stroke="#000000" stroke-width="4" stroke-linecap="round" stroke-linejoin="round" stroke-miterlimit="10" d="  M228.5,289.5c0,0-43.199-6.3-48.8-7.6c-5.5-1.4-16.8-4.5-17-2.101c-0.1,2.4-2.2,34.601-2.2,36.7c0,2,6.7,0.9,12.5,6.5  c5.801,5.5,10.7,15.8,13.4,16.101c2.601,0.3,95.5,17,105.2,18.199c0.3-3,14.2-12.399,19.101-12.399c4.899,0,7.699,0.399,8.8-3  c1.1-3.5,4.899-20.5,6.7-24.5c1.8-4,0.899-7.4-2.7-9.2c-3.601-1.7-66.2-14.2-66.2-14.2"/><path fill="none" stroke="#000000" stroke-width="4" stroke-linecap="round" stroke-linejoin="round" stroke-miterlimit="10" d="  M326.201,317.5"/><path fill="none" stroke="#000000" stroke-width="3" stroke-linecap="round" stroke-linejoin="round" stroke-miterlimit="10" d="  M250.001,309.3c0,0,50.6,9.7,58,11.2c7.5,1.5,6.2-5.399,1.1-6.7c-5.1-1.399-55.7-11.399-55.7-11.399"/><path fill="none" stroke="#000000" stroke-width="3" stroke-linecap="round" stroke-linejoin="round" stroke-miterlimit="10" d="  M229.801,305.9c0,0-41.2-8.601-50.2-10.101s-8.601-8.5-2.101-7.6s51.101,9.6,51.101,9.6"/><path fill="none" stroke="#000000" stroke-width="3" stroke-linecap="round" stroke-linejoin="round" stroke-miterlimit="10" d="  M175.801,303.6c-7.4-1.101-9.2,5.899-4.5,7c4.699,1.1,124.1,26.1,130.6,27.3c6.5,1.1,4.7-9.2,0.4-9.9  C302.301,328,183.1,304.5,175.801,303.6z"/><path fill="none" stroke="#000000" stroke-width="3" stroke-linecap="round" stroke-linejoin="round" stroke-miterlimit="10" d="  M284.001,341.7c0,0-80.9-15.9-88.5-17.2c-7.601-1.399-4.5,6.7-1.801,7.3c2.7,0.5,84.2,16.101,89.601,17.301c5,1.1,5.6-6.2,2.3-7.301  c-0.3,0-0.399-0.1-0.7-0.1"/><path fill="none" stroke="#000000" stroke-width="3" stroke-linecap="round" stroke-linejoin="round" stroke-miterlimit="10" d="  M283.301,349.1"/><path fill="none" stroke="#000000" stroke-width="4" stroke-linecap="round" stroke-linejoin="round" stroke-miterlimit="10" d="  M353.001,363c15.6,2.7,14,6.601,14.3,10.601s-11.8,39.399-13,46.1s-6.601,8.2-12.4,7c-5.899-1.1-167.3-31.6-188.4-35.6  C132.4,387,126.1,385.3,125.7,375.4c-0.5-9.8,4.5-47.9,6.7-51.3c2.2-3.4,20.3-1.301,30.9,4.5c10.6,5.899,6.899,14.1,14.199,17.5  c7.301,3.399,106.301,20.3,114.601,20.5c8.3,0.199,14.2-7.9,14.2-7.9C306.501,356.7,337.4,360.3,353.001,363z"/><path fill="none" stroke="#000000" stroke-width="4" stroke-linecap="round" stroke-linejoin="round" stroke-miterlimit="10" d="  M234.201,363.1c-13.601-2.4-78.9-14.4-89.601-16c-10.7-1.601-8.7,9.699-1.3,11c7.399,1.3,176.8,33.199,187.5,35  c10.6,1.8,9.7-9.601,2.3-12.2C333.1,380.9,247.701,365.5,234.201,363.1z"/><path fill="none" stroke="#000000" stroke-width="4" stroke-linecap="round" stroke-linejoin="round" stroke-miterlimit="10" d="  M327.001,389.9l1.399-8.5"/><path fill="none" stroke="#000000" stroke-width="4" stroke-linecap="round" stroke-linejoin="round" stroke-miterlimit="10" d="  M298.301,385.6l1.4-8.2"/><path fill="none" stroke="#000000" stroke-width="4" stroke-linecap="round" stroke-linejoin="round" stroke-miterlimit="10" d="  M172.5,363l1.301-8.2"/><path fill="none" stroke="#000000" stroke-width="4" stroke-linecap="round" stroke-linejoin="round" stroke-miterlimit="10" d="  M146.2,356.7l1.3-7.2"/><path fill="none" stroke="#000000" stroke-width="4" stroke-linecap="round" stroke-linejoin="round" stroke-miterlimit="10" d="  M326.501,403.8c11.7,2.2,6.399,12.7-3,11.9c-9.4-0.8-163.7-32.3-178.7-33.9c-15-1.6-9.301-14.6-2.101-12.399  C142.7,369.4,314.701,401.6,326.501,403.8z"/><path fill="none" stroke="#000000" stroke-width="4" stroke-linecap="round" stroke-linejoin="round" stroke-miterlimit="10" d="  M143.7,379.7l0.601-8.4"/><path fill="none" stroke="#000000" stroke-width="4" stroke-linecap="round" stroke-linejoin="round" stroke-miterlimit="10" d="  M168.4,383.8l1.3-7.699"/><path fill="none" stroke="#000000" stroke-width="4" stroke-linecap="round" stroke-linejoin="round" stroke-miterlimit="10" d="  M293.201,408.3l2-9.3"/><path fill="none" stroke="#000000" stroke-width="4" stroke-linecap="round" stroke-linejoin="round" stroke-miterlimit="10" d="  M320.801,413.7l1.7-9.8"/><path fill="none" stroke="#000000" stroke-width="4" stroke-linecap="round" stroke-linejoin="round" stroke-miterlimit="10" d="  M394.1,380.3c0,0,4.9-27.5-11-32.199c-15.899-4.601-26.899,5-30.5,13.3"/><path fill="none" stroke="#000000" stroke-width="4" stroke-linecap="round" stroke-linejoin="round" stroke-miterlimit="10" d="  M331.1,424.801c-0.6,8.899-2.6,13,5.9,16.8s18.399,6.399,29.6,4.3s25.7-41.5,27.2-55.2c1.6-13.7-3-27.7-11.7-28.3  c-8.7-0.601-11,1.1-14.899,6.6"/><path fill="none" stroke="#000000" stroke-width="4" stroke-linecap="round" stroke-linejoin="round" stroke-miterlimit="10" d="  M377.001,383.3c-4.4,0.301-8,10.4-10.101,20.101c-2.199,9.6-1,20.601,0.801,20.601c1.8,0,7-6.201,10.199-18.701  c3.2-12.6,3-20.699-0.399-21.6"/><path fill="none" stroke="#000000" stroke-width="4" stroke-linecap="round" stroke-linejoin="round" stroke-miterlimit="10" d="  M145.801,390.8c1.199,5.4,12.899,17,28.8,18.601c16,1.7,27.899-7.9,27.899-7.9"/><path fill="none" stroke="#000000" stroke-width="4" stroke-linecap="round" stroke-linejoin="round" stroke-miterlimit="10" d="  M141.2,321.9c0.4-2.7,2.2-79.601,3.101-83.601c0.899-4.1,25.8-73.199,28.199-77.499c2.4-4.301,6.101-13.9,9.4-14.2  c3.4-0.3,32-2.3,123.2,15.2s113.601,32.3,116.3,33.899c2.601,1.601-0.1,50.2-3.899,78.6c-3.8,28.4-22.4,90.9-22.4,90.9"/><path fill="none" stroke="#000000" stroke-width="4" stroke-linecap="round" stroke-linejoin="round" stroke-miterlimit="10" d="  M143.6,315.4c0,0,5.7,0.5,6.1,0.5c0.5,0,4-0.2,4.5-2.101c0.5-1.899,1.101-44.5,1.3-48.899c0.101-4.4-8.199-5.4-11.6-5.4"/><path fill="none" stroke="#000000" stroke-width="4" stroke-linecap="round" stroke-linejoin="round" stroke-miterlimit="10" d="  M149.6,315.9"/><path fill="none" stroke="#000000" stroke-width="3" stroke-linecap="round" stroke-linejoin="round" stroke-miterlimit="10" d="  M143.801,279.1L154.5,279"/><path fill="none" stroke="#000000" stroke-width="3" stroke-linecap="round" stroke-linejoin="round" stroke-miterlimit="10" d="  M143.6,300.9l9.899,0.5"/><path fill="none" stroke="#000000" stroke-width="3" stroke-linecap="round" stroke-linejoin="round" stroke-miterlimit="10" d="  M143.6,300.9"/><path fill="none" stroke="#000000" stroke-width="4" stroke-linecap="round" stroke-linejoin="round" stroke-miterlimit="10" d="  M351.501,295c-2.5-1.1-10.7-3.899-11.9,1.3c-1.1,5.2-10.899,44.601-11.6,48.2c-0.8,3.601,1.7,6.4,6.1,8.101  c4.4,1.699,11.4,0.3,11.8-1.2c0.5-1.5,4.7-10.9,7-20c2.301-9.101,6.301-30.9,6.301-30.9C359.701,299.4,354.201,296,351.501,295z"/><path fill="none" stroke="#000000" stroke-width="4" stroke-linecap="round" stroke-linejoin="round" stroke-miterlimit="10" d="  M359.201,300.5"/><path fill="none" stroke="#000000" stroke-width="3" stroke-linecap="round" stroke-linejoin="round" stroke-miterlimit="10" d="  M336.9,310.1c0,0,4.301,1.899,8.101,2.899s11.399,1.3,11.399,1.3"/><path fill="none" stroke="#000000" stroke-width="3" stroke-linecap="round" stroke-linejoin="round" stroke-miterlimit="10" d="  M331.6,332.4c0,0,5.7,1.7,8.7,2.899c3,1.2,9.9,1.2,9.9,1.2"/><path fill="none" stroke="#000000" stroke-width="3" stroke-linecap="round" stroke-linejoin="round" stroke-miterlimit="10" d="  M340.301,335.3"/><path fill="none" stroke="#000000" stroke-width="4" stroke-linecap="round" stroke-linejoin="round" stroke-miterlimit="10" d="  M388.801,218.9c-3.5-2.101-10.7-3.601-11.8,0.6c-1.101,4.2-11.2,42.5-12.3,47.5c-1.101,5-0.2,7.7,9.199,10.601  c9.4,2.899,13.9,3.3,15.5-0.9c1.601-4.1,14.601-51.3,14.601-51.3S392.1,221,388.801,218.9z"/><path fill="none" stroke="#000000" stroke-width="4" stroke-linecap="round" stroke-linejoin="round" stroke-miterlimit="10" d="  M391.801,220.4c0,0,1.5-5.9,2.1-9.9c0.601-4.1-2.1-9.3-8.1-9.899"/><path fill="none" stroke="#000000" stroke-width="4" stroke-linecap="round" stroke-linejoin="round" stroke-miterlimit="10" d="  M360.1,289.1c0,0,4.2,1,6.7,2.199c2.5,1.101,5.2,1.9,6.3-1.1c1.101-3,3.8-9,3.8-9"/><path fill="none" stroke="#000000" stroke-width="4" stroke-linecap="round" stroke-linejoin="round" stroke-miterlimit="10" d="  M391.501,279.2l12.1,4c0,0,0.9-1.7,2.2-10.9c1.4-9.3,7.4-53.3,7-53.6c-0.5-0.3-18.2-7.6-18.2-7.6"/><polygon fill="none" stroke="#000000" stroke-width="4" stroke-linecap="round" stroke-linejoin="round" stroke-miterlimit="10" points="  388.1,294.4 385.6,300.5 398.1,306 399.301,299.4 "/><path fill="none" stroke="#000000" stroke-width="4" stroke-linecap="round" stroke-linejoin="round" stroke-miterlimit="10" d="  M145.1,235.1c0,0-10.1-1.301-15-1.301s-7-5.699-6.7-10.6s4.3-41.4,4.3-47.9c0-6.6,6.9-9.199,15-7.899c8.101,1.399,13.9,6.1,13.9,9  c0,2.899-4.7,37.2-4.7,37.2"/><path fill="none" stroke="#000000" stroke-width="4" stroke-linecap="round" stroke-linejoin="round" stroke-miterlimit="10" d="  M146,167.6c0-3,2.7-7.4,3.9-7.101c1.1,0.2,20.2,3.9,20.2,3.9"/><path fill="none" stroke="#000000" stroke-width="4" stroke-linecap="round" stroke-linejoin="round" stroke-miterlimit="10" d="  M142.7,247.5c-2.7-0.399-6.2-3-5.7-4.3c0.5-1.4-0.3-5.6,0.4-8.2"/><path fill="none" stroke="#000000" stroke-width="4" stroke-linecap="round" stroke-linejoin="round" stroke-miterlimit="10" d="  M186.9,145.5c0,0-2.2-10.1,3-14.3c5.2-4.3,25.1-28.3,28.5-30.5c3.5-2.2,4.2-5.2,14.2-5.2s159,23.9,167.5,26.4s16.101,7.2,16.101,7.2  s0.699,6.3,0,10.1c-0.7,3.8-28.9,41.7-28.9,41.7"/><path fill="none" stroke="#000000" stroke-width="4" stroke-linecap="round" stroke-linejoin="round" stroke-miterlimit="10" d="  M190,131.2"/><path fill="none" stroke="#000000" stroke-width="2" stroke-linecap="round" stroke-linejoin="round" stroke-miterlimit="10" d="  M374.001,176.7c0,0,0.2-7.4,3.3-11.9s38.5-34.699,38.5-34.699"/><path fill="none" stroke="#000000" stroke-width="2" stroke-linecap="round" stroke-linejoin="round" stroke-miterlimit="10" d="  M377.301,164.8"/><path fill="none" stroke="#000000" stroke-width="4" stroke-linecap="round" stroke-linejoin="round" stroke-miterlimit="10" d="  M404.501,185.5l-2.101-23.6"/><path fill="none" stroke="#000000" stroke-width="4" stroke-linecap="round" stroke-linejoin="round" stroke-miterlimit="10" d="  M404.501,185.5"/><path fill="none" stroke="#000000" stroke-width="3" stroke-linecap="round" stroke-linejoin="round" stroke-miterlimit="10" d="  M205.6,114.4l4.2-68.3c0,0,51.6-1.601,94.1,1.3c42.5,2.8,129.4,9.2,129.4,9.2L412.1,190"/><path fill="none" stroke="#000000" stroke-width="3" stroke-linecap="round" stroke-linejoin="round" stroke-miterlimit="10" d="  M303.9,47.4"/><path fill="none" stroke="#000000" stroke-width="4" stroke-linecap="round" stroke-linejoin="round" stroke-miterlimit="10" d="  M421.301,195.6c0,0,26.5-151.801,26.7-154.5c0.2-2.601-81.101-8.5-124.8-10.7c-43.7-2.2-125.101-4.9-125.101-4.9L193.2,127"/><path fill="none" stroke="#000000" stroke-width="4" stroke-linecap="round" stroke-linejoin="round" stroke-miterlimit="10" d="  M405.1,340.6l94.3,26.6L573.701,117l-124.7-76.1"/><path fill="none" stroke="#000000" stroke-width="4" stroke-linecap="round" stroke-linejoin="round" stroke-miterlimit="10" d="  M449.001,40.9"/><path fill="none" stroke="#000000" stroke-width="3" stroke-linecap="round" stroke-linejoin="round" stroke-miterlimit="10" d="  M559.501,124.8l-98.2-57.899l-45.4,263l74.301,21.2L559.4,126"/><path fill="none" stroke="#000000" stroke-width="3" stroke-linecap="round" stroke-linejoin="round" stroke-miterlimit="10" d="  M559.4,124.7"/><path fill="none" stroke="#000000" stroke-width="4" stroke-linecap="round" stroke-linejoin="round" stroke-miterlimit="10" d="  M394.701,378.1l49,12.399l2.1-10.5l-49.1-14.8"/><path fill="none" stroke="#000000" stroke-width="4" stroke-linecap="round" stroke-linejoin="round" stroke-miterlimit="10" d="  M393.4,402.2l43.301,9l3.1-12l-44.3-9.9"/><path fill="none" stroke="#000000" stroke-width="4" stroke-linecap="round" stroke-linejoin="round" stroke-miterlimit="10" d="  M437.501,376.1L445.1,353"/><path fill="none" stroke="#000000" stroke-width="4" stroke-linecap="round" stroke-linejoin="round" stroke-miterlimit="10" d="  M426.801,372.6l8-22.7"/><path fill="none" stroke="#000000" stroke-width="4" stroke-linecap="round" stroke-linejoin="round" stroke-miterlimit="10" d="  M413.001,369.7l7.3-23.1"/><path fill="none" stroke="#000000" stroke-width="4" stroke-linecap="round" stroke-linejoin="round" stroke-miterlimit="10" d="  M432.201,395.7l1.3-6.3"/><path fill="none" stroke="#000000" stroke-width="4" stroke-linecap="round" stroke-linejoin="round" stroke-miterlimit="10" d="  M420.1,393l3.101-6.1"/><path fill="none" stroke="#000000" stroke-width="4" stroke-linecap="round" stroke-linejoin="round" stroke-miterlimit="10" d="  M386.1,419.1c0,0,6.9,0.399,13.2-2.9c6.2-3.3,8.2-9.4,8.2-9.4"/><path fill="none" stroke="#000000" stroke-width="4" stroke-linecap="round" stroke-linejoin="round" stroke-miterlimit="10" d="  M404.1,414.9l47,11.9c0,0,5.3-13.501,9.101-23.501c3.6-10,9.6-14.3,15-10.3c5.399,4-1.5,35.4-1.5,35.4l3.3,1.3c0,0,4-8.3,7.399-25.3  c3.4-17-4.1-20.601-5.6-20.9c-1.6-0.399-39-12.3-39-12.3"/><path fill="none" stroke="#000000" stroke-width="4" stroke-linecap="round" stroke-linejoin="round" stroke-miterlimit="10" d="  M453.6,374.4c0,0,1.2-1.5,3.4-5.8c2.2-4.301,5.1-8.101,0.399-11.2c-4.899-3.101-12.3-1.601-12.3-1.601"/><path fill="none" stroke="#000000" stroke-width="4" stroke-linecap="round" stroke-linejoin="round" stroke-miterlimit="10" d="  M466.201,378.5l7.1-17.8"/><path fill="none" stroke="#000000" stroke-width="4" stroke-linecap="round" stroke-linejoin="round" stroke-miterlimit="10" d="  M478.301,381.5l4.9-17.3"/><path fill="none" stroke="#000000" stroke-width="4" stroke-linecap="round" stroke-linejoin="round" stroke-miterlimit="10" d="  M480.1,365l-5.6-2.899l-0.3,0.899l7,3.101"/><path fill="none" stroke="#000000" stroke-width="4" stroke-linecap="round" stroke-linejoin="round" stroke-miterlimit="10" d="  M417.201,419c0,0-2.2,5.9-3.101,12.4c-0.899,6.5,0.4,16.6,3.8,18.8c3.4,2.3,34.5,10.3,36.301,9.9c1.8-0.4,9.6-10.3,14.3-20.8  c4.8-10.5,8.1-30.9,8.1-30.9"/><path fill="none" stroke="#000000" stroke-width="4" stroke-linecap="round" stroke-linejoin="round" stroke-miterlimit="10" d="  M451.701,431.801c-2.101,9.3-0.7,12.899,1.8,13.199c2.6,0.2,4.5-2.1,10.5-18.399c6-16.301,2.399-21.301,1.5-21.5  c-0.9-0.2-5.8,5.1-8.2,11.199C457.301,416.3,453.801,422.5,451.701,431.801z"/><path fill="none" stroke="#000000" stroke-width="4" stroke-linecap="round" stroke-linejoin="round" stroke-miterlimit="10" d="  M485.801,405.7c0,0,9.2,2.6,10.5,2.9c1.4,0.3,2.1-10.301,2.1-10.301l-12.3-4.5"/><path fill="none" stroke="#000000" stroke-width="4" stroke-linecap="round" stroke-linejoin="round" stroke-miterlimit="10" d="  M480.1,426.801c0,0,8.5,2.199,9.601,2.199c1,0,3.399-12.8,2.5-13c-0.9-0.1-8.7-2.2-8.7-2.2"/><path fill="none" stroke="#000000" stroke-width="4" stroke-linecap="round" stroke-linejoin="round" stroke-miterlimit="10" d="  M571.9,127.3c0,0,49.301,5.7,55.101,6.301c5.8,0.5,9.3,0.2,7.3,5.6c-1.9,5.4-76.4,231.5-78.8,237.1c-2.5,5.601-6.9,5.2-9,4.301  C544.301,379.8,502.4,363,502.4,363"/><path fill="none" stroke="#000000" stroke-width="4" stroke-linecap="round" stroke-linejoin="round" stroke-miterlimit="10" d="  M634.301,139.2"/><path fill="none" stroke="#000000" stroke-width="5" stroke-linecap="round" stroke-linejoin="round" stroke-miterlimit="10" d="  M7.1,482.301c0,0,137-39.4,377.101-18.4c240,21.1,434,108.4,436.199,108.4"/><path fill="none" stroke="#000000" stroke-width="5" stroke-linecap="round" stroke-linejoin="round" stroke-miterlimit="10" d="  M384.201,463.9"/><path fill="none" stroke="#000000" stroke-width="3" stroke-linecap="round" stroke-linejoin="round" stroke-miterlimit="10" d="  M590.501,271.5l25.5,2.7c0,0,22.899-45.5,23.3-47.3c0.5-1.8-20.4-35.7-20.4-35.7"/><path fill="none" stroke="#000000" stroke-width="3" stroke-linecap="round" stroke-linejoin="round" stroke-miterlimit="10" d="  M615.9,274l-16.5-27.7"/><path fill="none" stroke="#000000" stroke-width="3" stroke-linecap="round" stroke-linejoin="round" stroke-miterlimit="10" d="  M702.501,258.7c1,0.5-28.7,48.4-28.7,48.4l-45-13.4l23-46.3C651.801,247.4,701.501,258.2,702.501,258.7z"/><path fill="none" stroke="#000000" stroke-width="3" stroke-linecap="round" stroke-linejoin="round" stroke-miterlimit="10" d="  M674.001,306.4l30,42.5c0,0,13.7-24.5,16.8-28.7s12.1-15.7,12.1-15.7l-30.3-44.3"/><path fill="none" stroke="#000000" stroke-width="3" stroke-linecap="round" stroke-linejoin="round" stroke-miterlimit="10" d="  M628.701,293.8l30.5,42.101l41.8,11.6"/><path fill="none" stroke="#000000" stroke-width="3" stroke-linecap="round" stroke-linejoin="round" stroke-miterlimit="10" d="  M701.001,347.5"/><path fill="none" stroke="#000000" stroke-width="2" stroke-linecap="round" stroke-linejoin="round" stroke-miterlimit="10" d="  M678.9,341.2l-26.899-40.3"/><path fill="none" stroke="#000000" stroke-width="2" stroke-linecap="round" stroke-linejoin="round" stroke-miterlimit="10" d="  M652.001,300.9"/><path fill="none" stroke="#000000" stroke-width="3" stroke-linecap="round" stroke-linejoin="round" stroke-miterlimit="10" d="  M732.9,304.5c-0.3-3.3-0.699-25.5-0.699-25.5L703.1,238l0.4,22.4"/><path fill="none" stroke="#000000" stroke-width="3" stroke-linecap="round" stroke-linejoin="round" stroke-miterlimit="10" d="  M653.9,247l19.4-4l6.5,11.2"/><path fill="none" stroke="#000000" stroke-width="3" stroke-linecap="round" stroke-linejoin="round" stroke-miterlimit="10" d="  M725.6,370.8l8.7,20.9l26.2,7.9c0,0,0.7-4.601,4.7-11.601s10.1-13.7,10.1-13.7l-7-29.3l-28.2-3.899l-14.3,28.699l24.6,6.301l17.9-30  "/><path fill="none" stroke="#000000" stroke-width="3" stroke-linecap="round" stroke-linejoin="round" stroke-miterlimit="10" d="  M759.6,398.5l-9.2-22.399"/><path fill="none" stroke="#000000" stroke-width="3" stroke-linecap="round" stroke-linejoin="round" stroke-miterlimit="10" d="  M750.4,376.1"/><path fill="none" stroke="#000000" stroke-width="2" stroke-linecap="round" stroke-linejoin="round" stroke-miterlimit="10" d="  M745.9,395.6l-8.5-22.101"/><path fill="none" stroke="#000000" stroke-width="2" stroke-linecap="round" stroke-linejoin="round" stroke-miterlimit="10" d="  M737.4,373.5"/><path fill="none" stroke="#000000" stroke-width="3" stroke-linecap="round" stroke-linejoin="round" stroke-miterlimit="10" d="  M740.1,341.2l9.2-7.6l2.6,9.199"/><path fill="none" stroke="#000000" stroke-width="3" stroke-linecap="round" stroke-linejoin="round" stroke-miterlimit="10" d="  M775.301,373.3l2.2-15.199l-9.9-25.5l-0.5,13.3"/><path fill="none" stroke="#000000" stroke-width="3" stroke-linecap="round" stroke-linejoin="round" stroke-miterlimit="10" d="  M635.301,406.7l35.8-10.899l11.9-21.2L646.1,388L634.201,406.1l-0.601,1c0,0,10.101,31.8,11.9,32s38.8-12.5,38.8-12.5  s10.7-21.4,10.9-22.7c0.1-1.3-11.801-28.2-11.801-28.2"/><path fill="none" stroke="#000000" stroke-width="3" stroke-linecap="round" stroke-linejoin="round" stroke-miterlimit="10" d="  M684.201,426.6l-12.5-30.5"/><path fill="none" stroke="#000000" stroke-width="3" stroke-linecap="round" stroke-linejoin="round" stroke-miterlimit="10" d="  M684.301,426.6"/><path fill="none" stroke="#000000" stroke-width="2" stroke-linecap="round" stroke-linejoin="round" stroke-miterlimit="10" d="  M665.501,432L653.4,401.7"/><path fill="none" stroke="#000000" stroke-width="2" stroke-linecap="round" stroke-linejoin="round" stroke-miterlimit="10" d="  M665.501,432"/><path fill="none" stroke="#000000" stroke-width="3" stroke-linecap="round" stroke-linejoin="round" stroke-miterlimit="10" d="  M657.1,447.6l11.601,37.6l40.899,20l27.101-32.899l-9-42.801L692.9,411.3"/><path fill="none" stroke="#000000" stroke-width="3" stroke-linecap="round" stroke-linejoin="round" stroke-miterlimit="10" d="  M667.201,432.301l-12.4,13c0,0,40.4,19,44.2,21c3.8,1.899,28.7-36.9,28.7-36.9"/><path fill="none" stroke="#000000" stroke-width="3" stroke-linecap="round" stroke-linejoin="round" stroke-miterlimit="10" d="  M709.201,504.4l-9.7-37.5"/><path fill="none" stroke="#000000" stroke-width="3" stroke-linecap="round" stroke-linejoin="round" stroke-miterlimit="10" d="  M699.501,466.9"/><path fill="none" stroke="#000000" stroke-width="2" stroke-linecap="round" stroke-linejoin="round" stroke-miterlimit="10" d="  M676.9,454.801l30.2-36.4"/><path fill="none" stroke="#000000" stroke-width="2" stroke-linecap="round" stroke-linejoin="round" stroke-miterlimit="10" d="  M676.9,454.801"/><path fill="none" stroke="#000000" stroke-width="3" stroke-linecap="round" stroke-linejoin="round" stroke-miterlimit="10" d="  M712.4,503.6l9.2,7.8c0,0,6.5-8.7,9.9-13.2c3.5-4.5,16.8-19.3,16.8-19.3l-10.7-6.3"/><path fill="none" stroke="#000000" stroke-width="3" stroke-linecap="round" stroke-linejoin="round" stroke-miterlimit="10" d="  M666.1,477.6l-8.3,6.7l10.4,1.399"/><path fill="none" stroke="#000000" stroke-width="3" stroke-linecap="round" stroke-linejoin="round" stroke-miterlimit="10" d="  M614.6,371c0,0-9.899,7.101-10.3,7.4s-0.7,13.3-0.7,13.3l9.9,9.7l9.399-6.7l1.801-9.7l-9.101-14.2"/><path fill="none" stroke="#000000" stroke-width="3" stroke-linecap="round" stroke-linejoin="round" stroke-miterlimit="10" d="  M605.301,378.2l8.5,13.4l10.3-6.301"/><path fill="none" stroke="#000000" stroke-width="3" stroke-linecap="round" stroke-linejoin="round" stroke-miterlimit="10" d="  M613.6,401.4l0.5-8.9"/><path fill="none" stroke="#000000" stroke-width="3" stroke-linecap="round" stroke-linejoin="round" stroke-miterlimit="10" d="  M574.4,493.5c0,0,5.801-23.3,6.5-23.3c0.7,0,27.101-0.899,27.101-0.899s17.399,22.699,17.2,23.1c-0.2,0.5-6,12.1-6,12.1"/><path fill="none" stroke="#000000" stroke-width="3" stroke-linecap="round" stroke-linejoin="round" stroke-miterlimit="10" d="  M596.301,491.7l10.1-21.5"/><path fill="none" stroke="#000000" stroke-width="3" stroke-linecap="round" stroke-linejoin="round" stroke-miterlimit="10" d="  M578.001,493.7l17.899-1.399l4.9,7.3"/><path fill="none" stroke="#000000" stroke-width="3" stroke-linecap="round" stroke-linejoin="round" stroke-miterlimit="10" d="  M726.4,537.1v-8.3l16.301-1.301c0,0,14.6,14.2,14.199,14.601c-0.399,0.399-1.3,4-1.3,4"/><path fill="none" stroke="#000000" stroke-width="3" stroke-linecap="round" stroke-linejoin="round" stroke-miterlimit="10" d="  M739.9,540.301l2-11.9"/><path fill="none" stroke="#000000" stroke-width="3" stroke-linecap="round" stroke-linejoin="round" stroke-miterlimit="10" d="  M739.9,540.301"/><path fill="none" stroke="#000000" stroke-width="5" stroke-linecap="round" stroke-linejoin="round" stroke-miterlimit="10" d="  M123.301,490.301h17.3L131,487.6l63.301-2.4l-36.101-4.3l90-0.3l-57.1-7.4l104.4,2.9l-8.101-3.3l8.7,0.399l1.8,2.4l-2.1-0.3  l-1.3-0.2l-62.301-6.9l60.7,1.8l-33.399-4.699l26.6,0.899l36,5.601l-6-0.301l-28.5-6.3c0,0,12.8,7.2,13.2,7.2  c0.5,0,49.899,2.1,49.899,2.1l-63-12.399l28.9,3.6l65.8,12.8L320.9,465.1c0,0,24.101,4.7,40,6.5  c15.801,1.8,62.101,6.899,62.101,6.899"/></svg>